<svg width="8px" height="13px" viewBox="0 0 80 130" version="1.1" xmlns="http://www.w3.org/2000/svg">
<g id="#ffffffff">
<path fill="#ffffff" opacity="1.00" d=" M 58.92 7.93 C 62.29 4.45 68.20 4.02 72.00 7.04 C 76.78 10.38 77.31 18.03 73.09 22.03 C 58.65 36.54 44.15 50.99 29.69 65.48 C 44.15 80.00 58.68 94.44 73.12 108.97 C 77.07 112.81 76.82 119.88 72.62 123.44 C 68.89 126.94 62.48 126.77 58.95 123.07 C 45.06 109.28 31.27 95.39 17.42 81.55 C 11.52 76.90 6.47 71.25 1.20 65.91 L 1.14 65.10 C 6.44 59.75 11.50 54.09 17.42 49.42 C 31.25 35.59 45.04 21.71 58.92 7.93 Z" />
</g>
</svg>