<?xml version="1.0" encoding="UTF-8"?><!DOCTYPE svg PUBLIC "-//W3C//DTD SVG 1.1//EN" "http://www.w3.org/Graphics/SVG/1.1/DTD/svg11.dtd"><svg xmlns="http://www.w3.org/2000/svg"><symbol id="icon-account" viewBox="0 0 20 22"><title>icon-account</title><path d="M10 14a7 7 0 1 1 7-7 7 7 0 0 1-7 7zm0-12a5 5 0 1 0 5 5 5 5 0 0 0-5-5z"/><path d="M20 22h-2a8 8 0 0 0-16 0H0a10 10 0 0 1 20 0z"/><path d="M10 18a4 4 0 0 1-4-4h2a2 2 0 0 0 4 0h2a4 4 0 0 1-4 4z"/></symbol><symbol id="icon-arrow-next" viewBox="0 0 19.02 33.97"><title>icon-arrow-next</title><path d="M19 16.83L2.14.36a1.27 1.27 0 0 0-1.77 0 1.21 1.21 0 0 0 0 1.71L15.61 17 .37 31.9a1.21 1.21 0 0 0 0 1.71 1.27 1.27 0 0 0 1.77 0L19 17.17l-.2-.16z"/></symbol><symbol id="icon-arrow-prev" viewBox="0 0 18.95 34"><title>icon-arrow-prev</title><path d="M3.36 17L18.6 2.07a1.21 1.21 0 0 0 0-1.71 1.27 1.27 0 0 0-1.77 0L-.02 16.83l.17.17-.17.17 16.85 16.47a1.27 1.27 0 0 0 1.77 0 1.21 1.21 0 0 0 0-1.71z"/></symbol><symbol id="icon-arrow-top" viewBox="0 0 79.09 94.02"><title>icon-arrow-top</title><path class="a" d="M77.38 33.31l-34.82-32a4.42 4.42 0 0 0-6.21 0L1.66 33.16a5.13 5.13 0 0 0-.49 7 4.44 4.44 0 0 0 6.2.95 4.13 4.13 0 0 0 .49-.42l26.77-24.55v72.8a4.84 4.84 0 0 0 4.57 5.09h.19a4.83 4.83 0 0 0 4.74-4.92v-73l26.9 24.78a4.73 4.73 0 0 0 3.18 1.19 5 5 0 0 0 3.16-8.77z"/></symbol><symbol id="icon-cart" viewBox="0 0 23.33 19.98"><title>icon-cart</title><path d="M18.01 19.98a3 3 0 1 1 3-3 3 3 0 0 1-3 3zm0-4a1 1 0 1 0 1 1 1 1 0 0 0-1-1zm-9 4a3 3 0 1 1 3-3 3 3 0 0 1-3 3zm0-4a1 1 0 1 0 1 1 1 1 0 0 0-1-1zm11.82-2H6.19l-3.01-12H.01v-2h4.73l3.01 12h11.49l1.58-6.89H7.12v-2h16.21z"/></symbol><symbol id="icon-comparison-light" viewBox="0 0 15 17"><path class="a" d="M0 4h2v13H0zm7-4h2v17H7zm6 9h2v8h-2z"/></symbol><symbol id="icon-comparison" viewBox="0 0 26 24"><title>icon-comparison</title><path d="M26 24h-8V0h8zm-6-2h4V2h-4zm-3 2H9V12h8zm-6-2h4v-8h-4zm-3 2H0V6h8zm-6-2h4V8H2z"/></symbol><symbol id="icon-facebook" viewBox="0 0 25.55 49.24"><title>icon-facebook</title><path d="M16.55 49.24V26.81h7.57l1.13-8.78h-8.7v-5.59c0-2.54.71-4.26 4.35-4.26h4.65V.34A63.43 63.43 0 0 0 18.8 0C12.11 0 7.55 4.08 7.55 11.57v6.46H0v8.78h7.55v22.43z"/></symbol><symbol id="icon-filter" viewBox="0 0 512 420.38"><title>icon-filter</title><path d="M480.16 0H31.84A31.87 31.87 0 0 0 0 31.84v37.47a31.87 31.87 0 0 0 31.84 31.84h14.91L211.3 265.71v144.06a10.61 10.61 0 0 0 18.12 7.5L298 348.71a10.61 10.61 0 0 0 3.11-7.5v-75.5l164.54-164.56h14.51A31.87 31.87 0 0 0 512 69.31V31.84A31.87 31.87 0 0 0 480.16 0zM283 253.81a10.59 10.59 0 0 0-3.11 7.6v75.4l-47.33 47.33V261.35a10.58 10.58 0 0 0-3.11-7.54L76.77 101.15h358.85zm207.8-184.5a10.63 10.63 0 0 1-10.61 10.62H31.84a10.63 10.63 0 0 1-10.61-10.62V31.84a10.62 10.62 0 0 1 10.61-10.61h448.32a10.62 10.62 0 0 1 10.61 10.61v37.47z"/></symbol><symbol id="icon-heart" viewBox="0 0 22 19.31"><title>icon-heart</title><path d="M11 19.31l-.64-.55c-4-3.45-6.73-5.89-8.22-7.46a6.16 6.16 0 0 1-1-1.09 3.28 3.28 0 0 1-.5-.82v-.11A6.5 6.5 0 0 1 11 1.81a6.5 6.5 0 0 1 10.13 7.93 4.47 4.47 0 0 1-.36.57c-.11.15-.23.29-.35.43a80.31 80.31 0 0 1-8.78 8zM6.5 2A4.51 4.51 0 0 0 2 6.5a4.44 4.44 0 0 0 .45 2l.07.16a1.23 1.23 0 0 0 .25.34 4.77 4.77 0 0 0 .74.84q2.12 2.21 7.5 6.83a76.27 76.27 0 0 0 7.89-7.22 3.49 3.49 0 0 0 .25-.32 2.92 2.92 0 0 0 .23-.35A4.5 4.5 0 0 0 15.5 2a4.5 4.5 0 0 0-3.68 1.91L11 5.07l-.82-1.16A4.5 4.5 0 0 0 6.5 2z"/></symbol><symbol id="icon-instagram" viewBox="0 0 24 24"><title>Instagram icon</title><path d="M12 0C8.74 0 8.333.015 7.053.072 5.775.132 4.905.333 4.14.63c-.789.306-1.459.717-2.126 1.384S.935 3.35.63 4.14C.333 4.905.131 5.775.072 7.053.012 8.333 0 8.74 0 12s.015 3.667.072 4.947c.06 1.277.261 2.148.558 2.913a5.885 5.885 0 0 0 1.384 2.126A5.868 5.868 0 0 0 4.14 23.37c.766.296 1.636.499 2.913.558C8.333 23.988 8.74 24 12 24s3.667-.015 4.947-.072c1.277-.06 2.148-.262 2.913-.558a5.898 5.898 0 0 0 2.126-1.384 5.86 5.86 0 0 0 1.384-2.126c.296-.765.499-1.636.558-2.913.06-1.28.072-1.687.072-4.947s-.015-3.667-.072-4.947c-.06-1.277-.262-2.149-.558-2.913a5.89 5.89 0 0 0-1.384-2.126A5.847 5.847 0 0 0 19.86.63c-.765-.297-1.636-.499-2.913-.558C15.667.012 15.26 0 12 0zm0 2.16c3.203 0 3.585.016 4.85.071 1.17.055 1.805.249 2.227.415.562.217.96.477 1.382.896.419.42.679.819.896 1.381.164.422.36 1.057.413 2.227.057 1.266.07 1.646.07 4.85s-.015 3.585-.074 4.85c-.061 1.17-.256 1.805-.421 2.227a3.81 3.81 0 0 1-.899 1.382 3.744 3.744 0 0 1-1.38.896c-.42.164-1.065.36-2.235.413-1.274.057-1.649.07-4.859.07-3.211 0-3.586-.015-4.859-.074-1.171-.061-1.816-.256-2.236-.421a3.716 3.716 0 0 1-1.379-.899 3.644 3.644 0 0 1-.9-1.38c-.165-.42-.359-1.065-.42-2.235-.045-1.26-.061-1.649-.061-4.844 0-3.196.016-3.586.061-4.861.061-1.17.255-1.814.42-2.234.21-.57.479-.96.9-1.381.419-.419.81-.689 1.379-.898.42-.166 1.051-.361 2.221-.421 1.275-.045 1.65-.06 4.859-.06l.045.03zm0 3.678a6.162 6.162 0 1 0 0 12.324 6.162 6.162 0 1 0 0-12.324zM12 16c-2.21 0-4-1.79-4-4s1.79-4 4-4 4 1.79 4 4-1.79 4-4 4zm7.846-10.405a1.441 1.441 0 0 1-2.88 0 1.44 1.44 0 0 1 2.88 0z"/></symbol><symbol id="icon-load" viewBox="0 0 32 32"><title>icon-load</title><path class="a" d="M12 15.84H0v-12h4v5.64l5.8-5.8a13.29 13.29 0 0 1 18.36 0l-2.82 2.83a9.19 9.19 0 0 0-12.71 0L7.3 11.84H12zm8 .16v4h4.7l-5.33 5.35a9.2 9.2 0 0 1-12.7 0L3.84 28.2a13 13 0 0 0 18.36 0l5.8-5.8V28h4V16z"/></symbol><symbol id="icon-mail" viewBox="0 0 550.8 432.77"><title>icon-mail</title><path d="M377.79 264.56l156.05 156.05a47.09 47.09 0 0 1-32.23 12.16H49.18A47.09 47.09 0 0 1 17 420.61l156-156.1c3.9 2.81 7.51 5.43 10.77 7.81q17.52 12.92 28.43 20.13t29.05 14.76q18.14 7.53 33.81 7.53h.61q15.68 0 33.81-7.53t29.05-14.76q10.92-7.21 28.43-20.13l10.83-7.76zM31.05 166.29A163 163 0 0 1 0 139.54v237.45l137.54-137.56q-41.26-28.81-106.49-73.14zm489 0q-62.8 42.51-106.75 73.19l137.5 137.51V139.54a169.29 169.29 0 0 1-30.74 26.75zm-467.18-32.9q10.46 7.4 63 43.8c18.92 13.11 35.37 24.54 49.51 34.4 12.05 8.4 22.44 15.67 31 21.7l4.59 3.27 8.48 6.11q10 7.21 16.59 11.68t16 10a94.06 94.06 0 0 0 17.67 8.3 49 49 0 0 0 15.37 2.76h.61a49 49 0 0 0 15.37-2.76 93.43 93.43 0 0 0 17.67-8.3q9.38-5.53 16-10t16.6-11.68c3.45-2.5 6.25-4.52 8.47-6.11l4.59-3.27 31.11-21.62 112.75-78.28a145.94 145.94 0 0 0 37.49-37.8q15-22.12 15.06-46.41a47.16 47.16 0 0 0-14.6-34.73Q521.59-.01 501.61-.01H49.18q-23.67 0-36.42 16T0 55.99q0 19.36 16.9 42t35.97 35.4z"/></symbol><symbol id="icon-menu" viewBox="0 0 80 60"><path d="M4 8h72a4 4 0 0 0 0-8H4a4 4 0 0 0 0 8zM76 26H4a4 4 0 0 0 0 8h72a4 4 0 0 0 0-8zM76 52H4a4 4 0 0 0 0 8h72a4 4 0 0 0 0-8z"/></symbol><symbol id="icon-odnoklassniki" viewBox="0 0 24 24"><title>Odnoklassniki icon</title><path d="M14.505 17.44a11.599 11.599 0 0 0 3.6-1.49 1.816 1.816 0 0 0-1.935-3.073 7.866 7.866 0 0 1-8.34 0 1.814 1.814 0 0 0-2.5.565c0 .002 0 .004-.002.005a1.812 1.812 0 0 0 .567 2.5l.002.002c1.105.695 2.322 1.2 3.596 1.488l-3.465 3.465A1.796 1.796 0 0 0 6 23.439l.03.03c.344.354.81.53 1.274.53.465 0 .93-.176 1.275-.53L12 20.065l3.404 3.406a1.815 1.815 0 0 0 2.566-2.565l-3.465-3.466zM12 12.388a6.202 6.202 0 0 0 6.195-6.193C18.195 2.78 15.415 0 12 0S5.805 2.78 5.805 6.197A6.2 6.2 0 0 0 12 12.389zm0-8.757a2.566 2.566 0 0 1 0 5.13 2.569 2.569 0 0 1-2.565-2.564A2.57 2.57 0 0 1 12 3.63z"/></symbol><symbol id="icon-phone" viewBox="0 0 178.4 178.51"><title>noun_1512981_cc</title><path d="M5.65 23l19-20a13.54 13.54 0 0 1 17 0l28 29a10.41 10.41 0 0 1 0 16l-18 18a273.05 273.05 0 0 0 28 33c10 11 21 20 32 28l18-19a13.54 13.54 0 0 1 17 0l28 29a10.41 10.41 0 0 1 0 16l-19 19-1 1c-17 16-64-4-105-45s-60-87-44-105z"/></symbol><symbol id="icon-search" viewBox="0 0 21.7 21.7"><title>icon-search</title><path d="M0 8.6a8.49 8.49 0 0 0 8.5 8.5 8.68 8.68 0 0 0 5.3-1.8l6.5 6.4 1.4-1.4-6.5-6.5A8.91 8.91 0 0 0 17 8.5 8.56 8.56 0 0 0 8.5 0 8.64 8.64 0 0 0 0 8.6zm2-.1A6.5 6.5 0 1 1 8.5 15 6.49 6.49 0 0 1 2 8.5z"/></symbol><symbol id="icon-twitter" viewBox="0 0 24 24"><title>Twitter icon</title><path d="M23.954 4.569a10 10 0 0 1-2.825.775 4.958 4.958 0 0 0 2.163-2.723c-.951.555-2.005.959-3.127 1.184a4.92 4.92 0 0 0-8.384 4.482C7.691 8.094 4.066 6.13 1.64 3.161a4.822 4.822 0 0 0-.666 2.475c0 1.71.87 3.213 2.188 4.096a4.904 4.904 0 0 1-2.228-.616v.061a4.923 4.923 0 0 0 3.946 4.827 4.996 4.996 0 0 1-2.212.085 4.937 4.937 0 0 0 4.604 3.417 9.868 9.868 0 0 1-6.102 2.105c-.39 0-.779-.023-1.17-.067a13.995 13.995 0 0 0 7.557 2.209c9.054 0 13.999-7.496 13.999-13.986 0-.209 0-.42-.015-.63a9.936 9.936 0 0 0 2.46-2.548l-.047-.02z"/></symbol><symbol id="icon-view-grid" viewBox="0 0 18 18"><path class="a" d="M0 0h4v4H0zm7 4h4V0H7zm7-4v4h4V0zM0 11h4V7H0zm7 0h4V7H7zm7 0h4V7h-4zM0 18h4v-4H0zm7 0h4v-4H7zm7 0h4v-4h-4z"/></symbol><symbol id="icon-view-rows" viewBox="0 0 18 18"><path class="a" d="M18 0v4H0V0zM0 11h18V7H0zm0 7h18v-4H0z"/></symbol><symbol id="icon-vk" viewBox="0 0 24 24"><title>VK icon</title><path d="M11.701 18.771h1.437s.433-.047.654-.284c.21-.221.21-.63.21-.63s-.031-1.927.869-2.21c.887-.281 2.012 1.86 3.211 2.683.916.629 1.605.494 1.605.494l3.211-.044s1.682-.105.887-1.426c-.061-.105-.451-.975-2.371-2.76-2.012-1.861-1.742-1.561.676-4.787 1.469-1.965 2.07-3.166 1.875-3.676-.166-.48-1.26-.361-1.26-.361l-3.602.031s-.27-.031-.465.09c-.195.119-.314.391-.314.391s-.572 1.529-1.336 2.82c-1.623 2.729-2.268 2.879-2.523 2.699-.604-.391-.449-1.58-.449-2.432 0-2.641.404-3.75-.781-4.035-.39-.091-.681-.15-1.685-.166-1.29-.014-2.378.01-2.995.311-.405.203-.72.652-.539.675.24.03.779.146 1.064.537.375.506.359 1.636.359 1.636s.211 3.116-.494 3.503c-.495.262-1.155-.28-2.595-2.756-.735-1.26-1.291-2.67-1.291-2.67s-.105-.256-.299-.406c-.227-.165-.557-.225-.557-.225l-3.435.03s-.51.016-.689.24c-.166.195-.016.615-.016.615s2.686 6.287 5.732 9.453c2.79 2.902 5.956 2.715 5.956 2.715l-.05-.055z"/></symbol><symbol id="icon-youtube" viewBox="0 0 24 24"><title>YouTube icon</title><path class="a" d="M23.495 6.205a3.007 3.007 0 0 0-2.088-2.088c-1.87-.501-9.396-.501-9.396-.501s-7.507-.01-9.396.501A3.007 3.007 0 0 0 .527 6.205a31.247 31.247 0 0 0-.522 5.805 31.247 31.247 0 0 0 .522 5.783 3.007 3.007 0 0 0 2.088 2.088c1.868.502 9.396.502 9.396.502s7.506 0 9.396-.502a3.007 3.007 0 0 0 2.088-2.088 31.247 31.247 0 0 0 .5-5.783 31.247 31.247 0 0 0-.5-5.805zM9.609 15.601V8.408l6.264 3.602z"/></symbol></svg>